<svg t="1616059922150" class="icon" viewBox="0 0 1024 1024" version="1.1" xmlns="http://www.w3.org/2000/svg" p-id="2545" width="128" height="128"><path d="M122.88 892.21632L420.43904 600.576v296.96z m0-474.0608l297.5744-291.6608v296.96z m478.94016 0l297.5744-291.6608v296.96z" fill="#F4CA1C" p-id="2546"></path><path d="M394.97728 474.33216H150.16448A78.65344 78.65344 0 0 1 71.68 395.68896V150.33344A78.65344 78.65344 0 0 1 150.16448 71.68h244.8128a78.65344 78.65344 0 0 1 78.47424 78.65344v245.35552a78.64832 78.64832 0 0 1-78.47424 78.6432zM150.16448 145.408a4.9408 4.9408 0 0 0-4.92544 4.93568v245.34528a4.93568 4.93568 0 0 0 4.92544 4.93056h244.8128a4.93056 4.93056 0 0 0 4.92032-4.93056V150.33344a4.93568 4.93568 0 0 0-4.92032-4.93568H150.16448z m723.67616 328.92416h-244.81792a78.64832 78.64832 0 0 1-78.47424-78.64832v-245.3504A78.65344 78.65344 0 0 1 629.02272 71.68h244.81792A78.65344 78.65344 0 0 1 952.32 150.33344v245.35552a78.65344 78.65344 0 0 1-78.47936 78.6432zM629.02272 145.408a4.93568 4.93568 0 0 0-4.92032 4.93568v245.34528a4.93056 4.93056 0 0 0 4.92032 4.93056h244.81792a4.93568 4.93568 0 0 0 4.92544-4.93056V150.33344a4.9408 4.9408 0 0 0-4.92544-4.93568h-244.81792zM588.288 673.48992a36.80768 36.80768 0 0 1-36.77696-36.864v-50.59584a36.77696 36.77696 0 1 1 73.55392 0v50.59584a36.8128 36.8128 0 0 1-36.77696 36.864z m-0.48128 277.53984a36.8128 36.8128 0 0 1-36.77696-36.864v-173.45024a36.77696 36.77696 0 1 1 73.55392 0v173.45536a36.8128 36.8128 0 0 1-36.77696 36.85888z m324.52608-277.53984a36.80768 36.80768 0 0 1-36.77696-36.864v-50.59584a36.77696 36.77696 0 1 1 73.55392 0v50.59584a36.8128 36.8128 0 0 1-36.77696 36.864z m-0.4608 277.53984a36.8128 36.8128 0 0 1-36.77696-36.864v-173.45024a36.77696 36.77696 0 1 1 73.55392 0v173.45536a36.8128 36.8128 0 0 1-36.77696 36.85888z m-161.0752-208.14848a36.8128 36.8128 0 0 1-36.77696-36.864v-119.97696a36.77696 36.77696 0 1 1 73.55392 0V706.048a36.81792 36.81792 0 0 1-36.77696 36.83328z m-0.4864 208.14848a36.80768 36.80768 0 0 1-36.77184-36.864v-104.064a36.77696 36.77696 0 1 1 73.5488 0v104.06912a36.8128 36.8128 0 0 1-36.77696 36.85888zM297.87136 316.6976h-50.6112a20.87424 20.87424 0 0 1-20.84864-20.89472v-45.568a20.87424 20.87424 0 0 1 20.84864-20.89472h50.6112a20.87424 20.87424 0 0 1 20.84864 20.89472v45.568a20.87424 20.87424 0 0 1-20.84864 20.89472zM394.97728 952.32H150.16448A78.65344 78.65344 0 0 1 71.68 873.67168v-245.3504a78.65344 78.65344 0 0 1 78.47936-78.65344h244.81792a78.65344 78.65344 0 0 1 78.47424 78.65344v245.3504A78.64832 78.64832 0 0 1 394.97728 952.32z m-244.8128-328.93952a4.9408 4.9408 0 0 0-4.92544 4.9408v245.3504a4.93056 4.93056 0 0 0 4.92544 4.93056h244.8128a4.92544 4.92544 0 0 0 4.92032-4.93056v-245.3504a4.93568 4.93568 0 0 0-4.92032-4.9408H150.16448z m147.712 171.29984h-50.61632a20.87424 20.87424 0 0 1-20.84864-20.89472v-45.568a20.87424 20.87424 0 0 1 20.84864-20.89472h50.6112a20.86912 20.86912 0 0 1 20.84864 20.89472v45.568a20.86912 20.86912 0 0 1-20.84864 20.89472z m478.86848-477.98784h-50.6112a20.87424 20.87424 0 0 1-20.85376-20.89472v-45.568a20.87424 20.87424 0 0 1 20.85376-20.89472h50.6112a20.87424 20.87424 0 0 1 20.84864 20.89472v45.568a20.87424 20.87424 0 0 1-20.85376 20.89984z" fill="#595BB3" p-id="2547"></path></svg>
